<?xml version="1.0" encoding="utf-8"?>
<!-- Generator: Adobe Illustrator 24.3.0, SVG Export Plug-In . SVG Version: 6.00 Build 0)  -->
<svg version="1.1" id="Layer_1" xmlns="http://www.w3.org/2000/svg" xmlns:xlink="http://www.w3.org/1999/xlink" x="0px" y="0px"
	 viewBox="0 0 1252.8 200" style="enable-background:new 0 0 1252.8 200;" xml:space="preserve">
<g>
	<path d="M0,93.9c1.3-7,1.9-14.3,4-21.1C15.5,36,40.2,12.2,77.8,3.5c31.6-7.3,60.5,0,85.5,20.7c18.4,15.2,29.9,34.9,34,58.5
		c4.8,27.4-0.9,52.7-16.8,75.5c-0.2,0.2-0.3,0.5-0.5,0.9c5.6,5,11.3,10.1,17.2,15.4c-7.2,7.6-14.3,15-21.6,22.7
		c-25.2-22.7-50.4-45.5-75.7-68.3c6.6-8.1,13.1-16.1,19.6-24.1c11.1,9.9,22,19.7,33.1,29.7c2.7-4.9,4.7-9.9,5.9-15.2
		c5.5-23.3,1.6-44.7-13.6-63.4C132,40.1,115,31.8,94.4,33.2c-23.3,1.5-40.6,13.6-51.1,34.1c-13.7,26.8-11.6,53.1,6.4,77.5
		c10.2,13.8,24.4,21.9,41.6,23.9c4.5,0.5,9.1,0,13.7,0c0.7,0,1.5,0.1,1.9,0.5c8.7,7.8,17.4,15.6,26.1,23.4c0.3,0.3,0.5,0.6,1.3,1.5
		c-6.1,1.5-11.7,3.3-17.4,4.3c-21,3.6-41.4,1.2-60.5-8.3c-28.9-14.4-47-37.4-54.1-68.9c-1.1-4.6-1.5-9.4-2.2-14.1
		C0,102.6,0,98.3,0,93.9z"/>
	<path d="M1252.8,199.8c-12.6,0-25.1,0-37.7,0.1c-1.2,0-1.6-0.5-2-1.5c-11.9-34.4-23.8-68.9-35.7-103.3
		c-10.6-30.7-21.3-61.5-31.9-92.2c-0.3-0.8-0.5-1.6-0.9-2.8c1,0,1.7,0,2.4,0c11.5,0,22.9,0,34.4,0c1.5,0,2.3,0.3,2.8,1.9
		c15.4,44.7,30.9,89.4,46.4,134c7.2,20.7,14.3,41.4,21.5,62.1c0.2,0.5,0.5,0.9,0.7,1.3C1252.8,199.5,1252.8,199.6,1252.8,199.8z"/>
	<path d="M871.8,199.8c0-9.8,0-19.3,0-29c1,0,1.8,0,2.6,0c14.9,0,29.8,0,44.6,0c19.4,0,35.8-6.9,49-21.1
		c10.4-11.3,16.1-24.6,16.9-40c0.5-10.1,0.7-20.2-2.6-29.9c-8.5-25.5-26-40.8-52.5-45.6c-3.3-0.6-6.6-0.8-9.9-0.8
		c-15.2-0.1-30.5,0-45.7,0c-0.8,0-1.6,0-2.4,0c0-11.1,0-22.1,0-33.3c0.9,0,1.7,0,2.6,0c17.2,0,34.4-0.1,51.6,0
		c27.6,0.3,51.2,10.2,70.4,30c15.4,15.8,24.4,34.8,26.9,56.8c2.7,23.5-1.1,45.7-13.7,65.9c-15.7,25.1-38.2,40.5-67.5,45.6
		c-5.3,0.9-10.8,1.3-16.2,1.3c-17.1,0.2-34.3,0.1-51.4,0.1C873.7,199.8,872.8,199.8,871.8,199.8z"/>
	<path d="M489.5,170.8c38.2,0,75.6,0,113.3,0c0,9.7,0,19.2,0,28.8c-53.4,0-106.9,0-160.6,0c0-0.7,0-1.5,0-2.3
		c0-7.9-0.1-15.8,0.1-23.7c0-1.2,0.5-2.6,1.3-3.5c15.9-19,31.9-38,47.9-56.9c15.1-17.9,30.2-35.8,45.2-53.8c1.3-1.6,2.6-2.3,4.8-2.2
		c12.9,0.1,25.7,0.1,38.6,0.1c0.8,0,1.5,0,2.9,0C551.7,95.2,520.8,132.8,489.5,170.8z"/>
	<path d="M295.1,0.1c1.2,0,1.9,0,2.6,0c11.3,0,22.7,0,34,0c1.7,0,2.5,0.4,3.1,2.1c16.8,48.6,33.6,97.2,50.4,145.7
		c5.6,16.3,11.3,32.7,17,49c0.3,0.9,0.6,1.8,1,2.8c-0.9,0.1-1.5,0.1-2.1,0.1c-11.6,0-23.2,0-34.8,0c-1.5,0-2.1-0.3-2.6-1.8
		C349.7,158,335.9,118,322,77.9C313.3,53,304.7,28,296.1,3.1C295.8,2.2,295.5,1.4,295.1,0.1z"/>
	<path d="M828.3,199.8c-3.2,0-6.1,0-9,0c-9.3,0-18.6,0-27.9,0c-1.5,0-2.1-0.4-2.6-1.9c-13-37.5-26-75-39-112.5
		c-9.6-27.6-19.1-55.2-28.7-82.8c-0.3-0.7-0.5-1.5-0.8-2.5c0.9,0,1.6-0.1,2.3-0.1c11.5,0,22.9,0,34.4-0.1c1.7,0,2.4,0.6,2.9,2.1
		c13.4,38.8,26.8,77.6,40.3,116.4c9.2,26.5,18.3,53,27.5,79.5C827.9,198.5,828,199,828.3,199.8z"/>
	<path d="M442.3,33.2c0-11.1,0-22,0-33c53.6,0,107,0,160.5,0c0,11.1,0,22,0,33C549.4,33.2,495.9,33.2,442.3,33.2z"/>
	<path d="M216,199.7c19.7-53,39.4-105.9,59.2-159.3c1.6,4.6,3.1,8.6,4.5,12.7c4.6,13.2,9.1,26.5,13.8,39.8c0.5,1.5,0.5,2.8,0,4.3
		c-12.5,33.6-25,67.2-37.5,100.9c-0.4,1.1-0.7,1.8-2.2,1.8c-12.1-0.1-24.2,0-36.4-0.1C216.9,199.8,216.6,199.7,216,199.7z"/>
	<path d="M700.4,40.3c2.8,8.1,5.4,15.6,8,23.1c3.4,10,7,19.9,10.3,29.9c0.3,1,0.3,2.3,0,3.3c-12.5,33.8-25.1,67.5-37.6,101.3
		c-0.5,1.5-1.2,2-2.8,1.9c-11.7-0.1-23.4,0-35,0c-0.6,0-1.3-0.1-2.2-0.1C660.9,146.6,680.5,93.7,700.4,40.3z"/>
	<path d="M1065.4,199.8c19.8-53.2,39.4-106,59.2-159.3c0.4,1,0.7,1.6,1,2.3c5.8,16.7,11.5,33.3,17.4,50c0.6,1.6,0.5,3-0.1,4.6
		c-12.5,33.5-24.9,67-37.3,100.4c-0.6,1.5-1.3,2.1-3,2.1c-11.6-0.1-23.2,0-34.8,0C1067.1,199.8,1066.5,199.8,1065.4,199.8z"/>
</g>
</svg>
