<?xml version="1.0" encoding="utf-8"?>
<!-- Generator: Adobe Illustrator 24.3.0, SVG Export Plug-In . SVG Version: 6.00 Build 0)  -->
<svg version="1.1" id="Layer_1" xmlns="http://www.w3.org/2000/svg" xmlns:xlink="http://www.w3.org/1999/xlink" x="0px" y="0px"
	 viewBox="0 0 387.77 99.53" style="enable-background:new 0 0 387.77 99.53;" xml:space="preserve">
<style type="text/css">
	.st0{fill:#C62129;}
	.st1{fill:url(#SVGID_1_);}
	.st2{fill:#060707;}
</style>
<g>
	<g>
		<g>
			<path class="st0" d="M74.65,17.93c6.83,2.6,13.65,5.19,20.48,7.79c0.47,1.87,0.95,3.73,1.42,5.6
				C89.25,26.86,81.95,22.39,74.65,17.93z"/>
			<path class="st0" d="M87.69,27.85c2.9,3.71,5.79,7.42,8.69,11.13c0,1.28,0.01,2.57,0.01,3.85c-1.23-0.93-2.45-1.87-3.68-2.8
				C91.04,35.97,89.37,31.91,87.69,27.85z"/>
			<path class="st0" d="M86.78,29.78c1.92,3.76,3.84,7.51,5.76,11.27c-0.93,2.68-1.86,5.35-2.79,8.03
				C88.76,42.65,87.77,36.22,86.78,29.78z"/>
			<path class="st0" d="M93.77,49.01c0.04,0.06,0.09,0.11,0.13,0.17c-0.52,3.83-1.03,7.65-1.55,11.48c-0.75-1.61-1.5-3.22-2.25-4.83
				C91.32,53.56,92.54,51.28,93.77,49.01z"/>
			<path class="st0" d="M94.29,57.21c0.1,0.15,0.21,0.3,0.31,0.45c0.82,1.65,1.63,3.3,2.45,4.95c-1.2,1.4-2.4,2.8-3.59,4.19
				C93.73,63.6,94.01,60.41,94.29,57.21z"/>
			<path class="st0" d="M24.82,45.78c-1.57,1.03-3.14,2.07-4.72,3.1c0,0.07-0.01,0.14-0.01,0.21c0.33,0.31,0.66,0.62,1,0.93
				c0.18,0.02,0.36,0.04,0.55,0.07c-0.18-0.34-0.36-0.68-0.53-1.02c0.93-0.58,1.87-1.16,2.8-1.74c-0.39,0.78-0.77,1.56-1.16,2.34
				c-0.56,0.35-1.12,0.7-1.68,1.06c-0.55-0.12-1.09-0.24-1.64-0.36c-0.3-0.38-0.6-0.76-0.9-1.13c-0.01-0.13-0.03-0.26-0.04-0.4
				c2.32-1.56,4.64-3.11,6.97-4.67C25.24,44.7,25.03,45.24,24.82,45.78z"/>
		</g>
		<linearGradient id="SVGID_1_" gradientUnits="userSpaceOnUse" x1="47.2301" y1="1.7142" x2="48.0921" y2="97.383">
			<stop  offset="0" style="stop-color:#4A4C4C"/>
			<stop  offset="1" style="stop-color:#0C0D0D"/>
		</linearGradient>
		<path class="st1" d="M54.24,95.26c2.62,0.37,5.25,0.73,7.87,1.1c-3.61-1.84-7.21-3.67-10.82-5.51c-3.13-1.97-6.26-3.93-9.39-5.9
			c0.04-0.04,0.09-0.08,0.13-0.12c-0.91-0.95-1.82-1.9-2.73-2.85c0.56-0.95,1.13-1.91,1.7-2.86c-0.85,0.31-1.71,0.61-2.56,0.92
			c1.05-0.93,2.1-1.87,3.15-2.8c1.18,0.36,2.36,0.72,3.53,1.08c-1.06-1.57-2.12-3.15-3.18-4.73c-1.14-0.52-2.28-1.04-3.41-1.56
			c-0.47,0.08-0.93,0.16-1.4,0.23c-0.46-0.17-0.92-0.33-1.38-0.5c-1.17,0.1-2.33,0.21-3.5,0.31c0.71,0.2,1.41,0.39,2.12,0.58
			c-2.45,0.38-4.9,0.76-7.35,1.13c2.92,0.08,5.84,0.16,8.76,0.24c-2.45,0.58-4.91,1.15-7.36,1.73c-0.99,1.48-1.97,2.96-2.96,4.44
			c-1.52,0.49-3.04,0.98-4.57,1.48c1.49-1.57,2.97-3.13,4.46-4.69c-2.39,1.1-4.79,2.2-7.18,3.3c-2.48-1.33-4.97-2.65-7.45-3.98
			c0.44-0.89,0.89-1.78,1.33-2.67c-0.55-1-1.1-2-1.65-3c0.14,0.12,0.28,0.25,0.41,0.37c-0.06-5.86-0.12-11.73-0.18-17.59
			c-0.39,5.51-0.77,11.02-1.16,16.53c-2.3,1.13-4.61,2.25-6.91,3.37L2.53,72.6c1.39-0.97,2.79-1.93,4.18-2.9
			c-1.39,0.55-2.77,1.1-4.16,1.65c-0.05-2.79-0.11-5.59-0.16-8.38C1.59,67.11,0.8,71.25,0,75.39c0.86,0.41,1.73,0.81,2.59,1.22
			c0.01-0.04,0.03-0.07,0.04-0.11c3.05,1.75,6.09,3.5,9.14,5.25c1.72,2.12,3.45,4.25,5.17,6.37c1.54-0.66,3.09-1.33,4.63-1.99
			c-1,1.18-2,2.36-2.99,3.54c0.57,0.76,1.14,1.51,1.7,2.27c0.01-0.04,0.03-0.09,0.05-0.13c0.76,0.78,1.53,1.55,2.29,2.33
			c2.4,1.33,4.8,2.65,7.19,3.98c-0.05-0.48-0.11-0.96-0.16-1.44c1.65,0.62,3.29,1.23,4.94,1.85c-0.1-0.55-0.2-1.1-0.3-1.65
			c2.24,0.88,4.47,1.77,6.71,2.65c-0.12-1.02-0.23-2.04-0.35-3.06c0.07,0.25,0.15,0.51,0.22,0.76c1.64,0.54,3.28,1.08,4.92,1.62
			c-0.68-1.07-1.36-2.14-2.04-3.2c0.03-0.62,0.06-1.25,0.09-1.87C47.32,94.28,50.78,94.78,54.24,95.26z M42.08,91.73
			c-1.01-0.48-2.03-0.95-3.04-1.43c0.12,0.65,0.25,1.3,0.37,1.95h0.09c0.24,0.87,0.47,1.75,0.71,2.62
			c-1.43-0.98-2.86-1.96-4.28-2.94c0.35,1.2,0.69,2.39,1.04,3.58c-0.06,0-0.13,0.01-0.19,0.01c-1.4-0.6-2.81-1.2-4.22-1.81
			c-0.81,0.27-1.63,0.54-2.44,0.82c-1.7-0.89-3.39-1.78-5.09-2.67c-0.05-0.08-0.1-0.16-0.14-0.24c1.66,0.36,3.31,0.71,4.97,1.07
			c-1.15-0.82-2.29-1.63-3.43-2.45c-0.34-0.93-0.68-1.86-1.02-2.79c0.12-0.55,0.24-1.09,0.37-1.64c0.86-0.5,1.71-1,2.57-1.5
			c0.01,0.1,0.01,0.19,0.02,0.29c-0.52,1.32-1.05,2.63-1.57,3.95c0.8-0.85,1.6-1.7,2.39-2.55c2.21,0.95,4.43,1.9,6.64,2.84
			c-2.43-2.39-4.86-4.78-7.3-7.17c-0.02,0.03-0.05,0.05-0.07,0.08c-0.02-0.82-0.05-1.63-0.07-2.45c0.54-0.64,1.08-1.29,1.62-1.94
			c0.99-0.05,1.98-0.11,2.98-0.16c0.99,1.67,1.99,3.34,2.98,5c-1.42-1.3-2.84-2.6-4.26-3.91c1.37,2.23,2.74,4.46,4.12,6.7
			c1.16,0.92,2.32,1.85,3.48,2.77c1.66,0.89,3.31,1.78,4.97,2.68c-1.22-1.32-2.44-2.65-3.65-3.97c3.98,2.31,7.97,4.63,11.95,6.94
			c-0.9,0.06-1.81,0.12-2.71,0.18c-1.52-0.27-3.03-0.55-4.55-0.82C44.24,92.44,43.16,92.09,42.08,91.73z M27.49,71.65
			c1.44-0.96,2.88-1.91,4.32-2.87c2.43,0.75,4.86,1.5,7.28,2.25c-2.63-0.24-5.26-0.48-7.89-0.71C29.97,70.76,28.73,71.2,27.49,71.65
			z M24.64,66.35c3.69,0.16,7.38,0.33,11.08,0.49c-1.91,0.29-3.82,0.58-5.74,0.88c-1.35,0.57-2.71,1.13-4.06,1.7
			c-1.69,1.58-3.38,3.16-5.08,4.74c-0.08,0-0.15,0-0.23,0C21.95,71.56,23.29,68.96,24.64,66.35z M44.96,86.88
			c1.18-2.64,2.35-5.27,3.53-7.91c-0.2-1.54-0.4-3.09-0.59-4.63c-1.47-2.06-2.93-4.13-4.4-6.19c1.23,0.21,2.47,0.43,3.7,0.64
			c0.43,0.26,0.86,0.53,1.28,0.79c0-0.09,0-0.19,0-0.28c1.72,2.33,3.45,4.65,5.17,6.98c-1.39,2.08-2.78,4.16-4.17,6.24
			c-1.45,1.52-2.9,3.04-4.35,4.56C45.08,87.01,45.02,86.95,44.96,86.88z M38.31,61.9c1.41-4.32,2.82-8.65,4.23-12.97
			c0.09,0.01,0.18,0.01,0.27,0.02c1.2,0.52,2.41,1.04,3.61,1.56c-0.13,1.22-0.26,2.44-0.39,3.66C43.45,56.75,40.88,59.32,38.31,61.9
			z M37.19,46.35c0.65-2.37,1.31-4.73,1.96-7.1c0.91,3.07,1.83,6.14,2.74,9.2c-0.35,1.45-0.7,2.91-1.04,4.36
			C39.63,50.65,38.41,48.5,37.19,46.35z M64.31,29.34c-2.38-0.13-4.77-0.27-7.15-0.4c-0.95-0.54-1.9-1.08-2.85-1.63
			c-0.66-0.86-1.32-1.71-1.98-2.57c0.05-1.19,0.1-2.39,0.16-3.58c-0.55-0.8-1.1-1.61-1.65-2.41c-0.09-1.39-0.18-2.78-0.27-4.17
			c0.61,1.1,1.22,2.2,1.82,3.31c0.95,0.9,1.91,1.81,2.86,2.71c0.17,1.96,0.33,3.93,0.5,5.89c0.55-1.79,1.11-3.58,1.66-5.36
			c-0.19-0.45-0.38-0.91-0.58-1.36c-1.55-1.78-3.1-3.55-4.65-5.33c-0.15-1.07-0.31-2.14-0.46-3.21c-1.16-2-2.32-4.01-3.47-6.01
			c1.84,2.48,3.68,4.95,5.52,7.43c0.33,0.96,0.67,1.92,1.01,2.87c5.83,0.13,11.66,0.26,17.49,0.39c-5.56-1.11-11.12-2.23-16.67-3.34
			c-0.63-1.45-1.25-2.89-1.88-4.33c-1.09-1.19-2.17-2.38-3.26-3.57c-1.29-0.28-2.57-0.56-3.86-0.84C46.15,2.55,45.69,1.28,45.23,0
			c-2.45,1.41-4.89,2.82-7.34,4.23c-1.14,1.62-2.28,3.24-3.42,4.85c0.52,0.53,1.05,1.06,1.57,1.59c-0.74,0.04-1.48,0.08-2.22,0.11
			c0.5,0.64,1,1.28,1.5,1.91c-0.66,0.05-1.33,0.1-1.99,0.15c-0.04,1.2-0.08,2.4-0.11,3.61c-1.85,1.07-3.7,2.14-5.55,3.21
			c-2.23-1.24-4.47-2.47-6.7-3.71c-0.35-1.23-0.7-2.45-1.05-3.68c-1.64,1.96-3.28,3.92-4.91,5.88c-0.68,1.49-1.37,2.98-2.05,4.47
			c0.03,1.38,0.06,2.76,0.08,4.14c0.99,1.42,1.99,2.85,2.98,4.27C12.61,36.43,9.19,41.81,5.77,47.2c0.48,0.73,0.97,1.45,1.45,2.18
			c-0.96,2.84-1.93,5.69-2.89,8.53c1.99-2.92,3.98-5.84,5.98-8.77c0.61,0.16,1.22,0.31,1.83,0.47c0.38,7.04,0.75,14.08,1.13,21.12
			c1.88-6.21,3.76-12.41,5.64-18.62c-0.43,3.92-0.85,7.84-1.28,11.75c1.46-3.73,2.92-7.47,4.38-11.2c0.68-0.38,1.37-0.75,2.05-1.13
			c0.72-1.67,1.44-3.35,2.17-5.02c1.01,1.08,2.02,2.15,3.03,3.23c0.12,0.69,0.24,1.38,0.37,2.07c-0.85,1.9-1.7,3.8-2.54,5.7
			c0.96-0.76,1.92-1.52,2.89-2.28l1.67-2.5c0.15-1.87,0.3-3.74,0.45-5.61c-0.68-1.62-1.35-3.24-2.02-4.86l1.91-2.74
			c-3.14,1.59-6.29,3.17-9.44,4.76c-2.23,1.36-4.46,2.71-6.69,4.07c-0.04-0.32-0.08-0.63-0.12-0.95c0.58-1.01,1.17-2.02,1.75-3.04
			c1.13-0.57,2.29-1.19,3.47-1.86c0.57-0.32,1.13-0.65,1.67-0.98c-2.05,0.2-4.1,0.39-6.16,0.59c-0.95,1.41-1.9,2.82-2.85,4.23
			c-0.31,0.36-0.61,0.72-0.92,1.08c-0.82-0.03-1.64-0.05-2.46-0.07c-0.12-0.53-0.23-1.07-0.35-1.6c2.45-4.41,4.91-8.82,7.36-13.23
			c1.46-1.13,2.92-2.25,4.38-3.37c2.73-0.78,5.46-1.57,8.19-2.36c-1.81-0.23-3.61-0.46-5.42-0.69c-1.22,0.32-2.43,0.65-3.65,0.97
			c0.8-0.72,1.6-1.44,2.39-2.17c1.48-0.31,2.97-0.63,4.45-0.95c-0.6-0.53-1.2-1.06-1.79-1.6c0.93-0.34,1.86-0.69,2.79-1.03
			c0.09,0.72,0.18,1.45,0.27,2.17c1.43,0.98,2.86,1.97,4.28,2.95c-0.55-1.29-1.09-2.58-1.64-3.87c0.53-1.4,1.07-2.8,1.6-4.2
			c0.09-0.11,0.19-0.23,0.28-0.34c0.54,1.76,1.08,3.51,1.62,5.27c0.73,0.82,1.45,1.64,2.18,2.46c1.38-0.11,2.76-0.22,4.13-0.33
			l4.33,1.95c-1.07-1.3-2.14-2.61-3.22-3.91c-1.05,0.08-2.11,0.16-3.16,0.24c-0.89-1.19-1.78-2.37-2.67-3.56
			c-0.2-1.9-0.39-3.79-0.59-5.68c0.32-2,0.63-3.99,0.95-5.99c0.58-0.85,1.15-1.7,1.73-2.56c1.5-0.92,2.99-1.84,4.49-2.76
			c-1.38,1.48-2.76,2.95-4.14,4.43c-0.48,1.61-0.96,3.21-1.44,4.82c1-1.53,2-3.06,3-4.58c1.36-0.74,2.73-1.48,4.09-2.22
			c-1.15,1.21-2.31,2.41-3.47,3.62c-0.41,0.73-0.83,1.47-1.24,2.2c-0.14,2.54-0.28,5.08-0.42,7.62c0.66,0.81,1.33,1.63,1.99,2.44
			c0.91,0.27,1.82,0.54,2.72,0.81l2.81,5.06c2.01,1.22,4.02,2.43,6.04,3.65c2.4,0.64,4.8,1.27,7.2,1.91
			c1.27,0.01,2.54,0.02,3.8,0.04c0.61,0.57,1.22,1.14,1.82,1.7c0.89,2.77,1.77,5.54,2.66,8.3c0.19-2.6,0.39-5.21,0.58-7.81
			c-0.35-1.03-0.71-2.07-1.06-3.1C66.85,31.15,65.58,30.25,64.31,29.34z M18.71,48.91c1.17-0.86,2.43-1.73,3.77-2.59
			c0.91-0.59,1.8-1.13,2.68-1.65c-0.68,1.51-1.36,3.02-2.04,4.53c-0.16,0.14-0.32,0.27-0.48,0.41c-0.43,0.23-0.86,0.45-1.28,0.68
			c-0.57-0.09-1.13-0.18-1.7-0.27c-0.31-0.31-0.63-0.61-0.94-0.92V48.91z M65.04,16.99c-1.87,1.15-3.74,2.31-5.6,3.46
			c-0.91-1.21-1.83-2.42-2.74-3.63C59.48,16.88,62.26,16.94,65.04,16.99z M61.6,20.99c1.55-1.1,3.09-2.2,4.64-3.3
			c0.14,0,0.28,0.01,0.42,0.01c4.78,2.88,9.57,5.76,14.35,8.65C74.54,24.56,68.07,22.77,61.6,20.99z M72.46,25.74
			c3.06,0.7,6.11,1.39,9.17,2.09c-0.04,1.56-0.08,3.13-0.12,4.69C78.5,30.26,75.48,28,72.46,25.74z M75.92,30.27
			c0.17,0.05,0.34,0.1,0.51,0.16c1.63,1.18,3.25,2.36,4.88,3.54c-0.86,4.5-1.73,9.01-2.59,13.51
			C77.79,41.74,76.85,36.01,75.92,30.27z M79.25,48.11c0.63-2.37,1.27-4.73,1.9-7.1c0.05,0.09,0.11,0.18,0.16,0.26
			c0.88,3.43,1.76,6.86,2.63,10.29C82.37,50.41,80.81,49.26,79.25,48.11z M81.69,53.54c0.18,0,0.36,0,0.54,0.01
			c1.56,3.6,3.11,7.21,4.67,10.81c-1.73,5.46-3.45,10.92-5.18,16.38C81.71,71.67,81.7,62.61,81.69,53.54z M80.1,67.73
			c0.24,2.48,0.47,4.97,0.71,7.45c-2.83,3.73-5.67,7.45-8.5,11.18C74.9,80.15,77.5,73.94,80.1,67.73z M74.02,86.61
			c0.75-0.86,1.51-1.72,2.26-2.58c0.06,0.07,0.11,0.14,0.17,0.2c0.63,1.83,1.26,3.66,1.88,5.49C76.89,88.68,75.46,87.65,74.02,86.61
			z M41.55,33.4c5.57,1.71,11.13,3.43,16.7,5.14c0.84,1.14,1.67,2.27,2.51,3.41c-0.26,1.09-0.52,2.19-0.78,3.28
			c-5.73-3.73-11.47-7.45-17.2-11.18C42.37,33.84,41.96,33.62,41.55,33.4z M52.81,50.01c0.66-2.48,1.33-4.97,1.99-7.45
			c1.75,1.15,3.49,2.3,5.24,3.45c-1.64,4.39-3.29,8.79-4.93,13.18C54.35,56.13,53.58,53.07,52.81,50.01z M51.78,80.48
			c3.95-0.36,7.9-0.72,11.86-1.08c-0.18,2.71-0.36,5.42-0.55,8.13C59.32,85.18,55.55,82.83,51.78,80.48z M52.85,79.57
			c1.06-1.99,2.12-3.99,3.17-5.98c2.97,1.57,5.95,3.14,8.92,4.72C60.91,78.73,56.88,79.15,52.85,79.57z M55.46,72.07
			c4.4-0.63,8.8-1.26,13.2-1.89c-1.37,2.27-2.75,4.54-4.12,6.8C61.52,75.34,58.49,73.7,55.46,72.07z M58.28,70.84
			c3.42-1.67,6.84-3.34,10.26-5.02c0.06-0.12,0.12-0.24,0.18-0.37c0,1.27,0.01,2.55,0.01,3.82C65.25,69.8,61.76,70.32,58.28,70.84z
			 M54.29,69.21c-0.48-2.47-0.97-4.93-1.45-7.4c0.06,0.17,0.12,0.35,0.17,0.52c1.08,1.3,2.17,2.59,3.25,3.89
			c0.01,0.07,0.01,0.13,0.02,0.2c0.3,0.31,0.6,0.62,0.9,0.93c0.01-0.04,0.01-0.08,0.02-0.13c2.77-0.29,5.55-0.58,8.32-0.87
			c-3.26,1.43-6.52,2.85-9.78,4.28c-0.2,0.18-0.4,0.37-0.6,0.55c0.06-0.15,0.12-0.3,0.19-0.45c-0.31,0.33-0.62,0.65-0.93,0.98
			C54.36,70.87,54.32,70.04,54.29,69.21z M57.28,65.94c2.14-1.55,4.27-3.09,6.41-4.64c0.2-0.48,0.41-0.96,0.61-1.45
			c-0.04-0.01-0.07-0.02-0.11-0.03c0.93-2.89,1.86-5.78,2.78-8.67c0.34,1.4,0.68,2.79,1.02,4.19c-0.08,1-0.16,2-0.25,3
			c0.04-0.01,0.08-0.01,0.12-0.02c-0.71,2.25-1.41,4.49-2.12,6.74C62.92,65.35,60.1,65.64,57.28,65.94z M69.27,63.82
			c0.09-0.09,0.17-0.18,0.26-0.28c2.82,0.34,5.65,0.68,8.47,1.03c-2.61,2.85-5.23,5.7-7.84,8.55
			C69.86,70.01,69.56,66.92,69.27,63.82z M70.87,62.98c0.2-0.23,0.4-0.47,0.6-0.7c1.14-1.71,2.27-3.42,3.41-5.12
			c0.19-6.51,0.39-13.03,0.58-19.54c1.42,7.12,2.85,14.25,4.27,21.37c-0.53,1.55-1.05,3.09-1.58,4.64
			c-2.21-0.29-4.42-0.58-6.63-0.86C71.31,62.84,71.09,62.91,70.87,62.98z M73.31,17.92c6.82,2.6,13.65,5.19,20.47,7.79
			c0.45,1.85,0.89,3.71,1.34,5.56C87.84,26.82,80.57,22.37,73.31,17.92z M86.31,27.91c2.9,3.71,5.79,7.41,8.69,11.12
			c-0.01,1.27-0.02,2.53-0.03,3.8c-0.94-0.64-1.89-1.28-2.83-1.93c-0.09,0.01-0.19,0.02-0.28,0.02
			C90.01,36.59,88.16,32.25,86.31,27.91z M88.36,49.03c-1-6.4-2.01-12.8-3.01-19.2c1.92,3.76,3.83,7.52,5.75,11.28
			C90.19,43.75,89.28,46.39,88.36,49.03z M92.34,48.97c0.07,0.06,0.13,0.12,0.2,0.18c-0.52,3.82-1.04,7.63-1.56,11.45
			c-0.75-1.6-1.51-3.21-2.26-4.81C89.92,53.52,91.13,51.25,92.34,48.97z M92.92,57.27c0.14,0.24,0.28,0.47,0.42,0.71
			c0.78,1.55,1.56,3.1,2.33,4.65c-1.2,1.37-2.39,2.74-3.59,4.12C92.36,63.58,92.64,60.42,92.92,57.27z"/>
	</g>
	<g>
		<path class="st2" d="M152.49,31.81l-25.4,40.8h8.22c3.89,0,6.61-0.24,8.16-0.73c2.53-0.76,4.71-2.17,6.53-4.22
			c1.83-2.05,3.09-4.8,3.79-8.24h1.24l-1.75,15.62H113.7l25.43-40.86h-6.41c-2.49,0-4.12,0.07-4.91,0.22
			c-1.49,0.28-2.88,0.82-4.19,1.64c-1.31,0.82-2.39,1.91-3.25,3.27c-0.86,1.36-1.54,3.08-2.02,5.16h-1.18l1.18-12.65H152.49z"/>
		<path class="st2" d="M181.4,31.21c6.88-0.25,12.48,1.75,16.78,6.02c4.3,4.27,6.45,9.62,6.45,16.03c0,5.48-1.6,10.31-4.81,14.47
			c-4.25,5.52-10.25,8.29-18.01,8.29c-7.78,0-13.79-2.63-18.04-7.9c-3.36-4.16-5.04-9.1-5.04-14.82c0-6.42,2.18-11.77,6.55-16.05
			C169.65,32.96,175.02,30.95,181.4,31.21z M181.78,33.25c-3.95,0-6.96,2.02-9.02,6.06c-1.68,3.31-2.52,8.07-2.52,14.28
			c0,7.37,1.3,12.82,3.89,16.35c1.81,2.47,4.33,3.7,7.59,3.7c2.19,0,4.02-0.53,5.48-1.59c1.87-1.36,3.33-3.53,4.37-6.52
			c1.04-2.99,1.56-6.88,1.56-11.68c0-5.72-0.53-9.99-1.59-12.83c-1.06-2.84-2.42-4.84-4.06-6.01
			C185.82,33.83,183.93,33.25,181.78,33.25z"/>
		<path class="st2" d="M224.3,55.33v12.11c0,2.34,0.14,3.81,0.43,4.41c0.29,0.61,0.79,1.09,1.51,1.45c0.72,0.36,2.07,0.54,4.05,0.54
			v1.18h-22.12v-1.18c2,0,3.35-0.19,4.06-0.56c0.71-0.37,1.21-0.86,1.5-1.45c0.29-0.59,0.43-2.06,0.43-4.4V39.4
			c0-2.34-0.14-3.81-0.43-4.41c-0.29-0.61-0.79-1.09-1.51-1.45c-0.72-0.36-2.07-0.54-4.05-0.54v-1.18h20.08
			c5.23,0,9.05,0.36,11.47,1.08c2.42,0.72,4.4,2.06,5.93,4c1.53,1.94,2.29,4.22,2.29,6.84c0,3.19-1.15,5.82-3.44,7.9
			c-1.47,1.32-3.52,2.31-6.15,2.96l10.39,14.63c1.36,1.89,2.33,3.07,2.9,3.54c0.87,0.66,1.88,1.02,3.03,1.08v1.18h-13.61
			l-13.93-19.7H224.3z M224.3,34.14v18.93h1.82c2.95,0,5.16-0.27,6.63-0.81s2.62-1.52,3.46-2.93c0.84-1.41,1.26-3.26,1.26-5.53
			c0-3.29-0.77-5.73-2.31-7.3c-1.54-1.57-4.02-2.36-7.44-2.36H224.3z"/>
		<path class="st2" d="M299.14,30.82v15.24h-1.18c-1.42-4.16-3.56-7.33-6.41-9.5c-2.85-2.17-5.96-3.25-9.34-3.25
			c-3.23,0-5.92,0.91-8.06,2.73c-2.15,1.82-3.67,4.35-4.56,7.6c-0.89,3.25-1.34,6.59-1.34,10.01c0,4.14,0.49,7.78,1.47,10.9
			c0.98,3.12,2.55,5.42,4.73,6.88c2.18,1.47,4.76,2.2,7.76,2.2c1.04,0,2.11-0.11,3.2-0.33c1.09-0.22,2.22-0.55,3.36-0.97v-8.99
			c0-1.7-0.12-2.8-0.35-3.3c-0.23-0.5-0.72-0.95-1.45-1.35c-0.73-0.4-1.62-0.61-2.66-0.61h-1.12V56.9h21v1.18
			c-1.59,0.11-2.7,0.32-3.33,0.65c-0.63,0.33-1.11,0.88-1.45,1.64c-0.19,0.4-0.29,1.39-0.29,2.96v8.99
			c-2.76,1.23-5.64,2.16-8.62,2.79c-2.99,0.63-6.08,0.94-9.29,0.94c-4.1,0-7.51-0.56-10.22-1.67c-2.71-1.12-5.1-2.58-7.17-4.4
			c-2.07-1.82-3.69-3.86-4.86-6.14c-1.49-2.93-2.23-6.22-2.23-9.85c0-6.5,2.28-11.99,6.85-16.48c4.57-4.48,10.32-6.73,17.24-6.73
			c2.15,0,4.08,0.17,5.8,0.51c0.93,0.17,2.45,0.65,4.54,1.45c2.09,0.8,3.33,1.2,3.71,1.2c0.59,0,1.15-0.22,1.66-0.65
			c0.51-0.44,0.98-1.26,1.4-2.47H299.14z"/>
		<path class="st2" d="M345.1,73.85v1.18h-22.6v-1.18h1.43c1.25,0,2.26-0.22,3.03-0.67c0.55-0.3,0.98-0.81,1.27-1.53
			c0.23-0.51,0.35-1.85,0.35-4.02V39.21c0-2.21-0.12-3.59-0.35-4.14c-0.23-0.55-0.71-1.04-1.42-1.45c-0.71-0.41-1.67-0.62-2.88-0.62
			h-1.43v-1.18h22.6v1.18h-1.43c-1.25,0-2.26,0.22-3.03,0.67c-0.55,0.3-0.99,0.81-1.31,1.53c-0.23,0.51-0.35,1.85-0.35,4.02v28.43
			c0,2.21,0.12,3.59,0.37,4.14c0.24,0.55,0.72,1.04,1.43,1.45c0.71,0.41,1.67,0.62,2.88,0.62H345.1z"/>
		<path class="st2" d="M387.77,31.81v11.7h-1.15c-0.68-2.7-1.43-4.64-2.26-5.82c-0.83-1.18-1.97-2.12-3.41-2.82
			c-0.81-0.38-2.22-0.57-4.24-0.57h-3.22v33.34c0,2.21,0.12,3.59,0.37,4.14c0.24,0.55,0.72,1.04,1.43,1.45
			c0.71,0.41,1.68,0.62,2.92,0.62h1.43v1.18h-22.63v-1.18h1.43c1.25,0,2.26-0.22,3.03-0.67c0.55-0.3,0.99-0.81,1.31-1.53
			c0.23-0.51,0.35-1.85,0.35-4.02V34.3h-3.12c-2.91,0-5.03,0.62-6.34,1.85c-1.85,1.72-3.02,4.18-3.51,7.36h-1.21v-11.7H387.77z"/>
	</g>
</g>
</svg>
