<?xml version="1.0" encoding="utf-8"?>
<!-- Generator: Adobe Illustrator 24.3.0, SVG Export Plug-In . SVG Version: 6.00 Build 0)  -->
<svg version="1.1" id="Layer_1" xmlns="http://www.w3.org/2000/svg" xmlns:xlink="http://www.w3.org/1999/xlink" x="0px" y="0px"
	 viewBox="0 0 812.4 200" style="enable-background:new 0 0 812.4 200;" xml:space="preserve">
<style type="text/css">
	.st0{clip-path:url(#SVGID_2_);}
	.st1{clip-path:url(#SVGID_4_);fill:#475DEB;}
	.st2{clip-path:url(#SVGID_6_);fill:#475DEB;}
</style>
<g>
	<g>
		<defs>
			<rect id="SVGID_1_" x="0" width="812.4" height="200"/>
		</defs>
		<clipPath id="SVGID_2_">
			<use xlink:href="#SVGID_1_"  style="overflow:visible;"/>
		</clipPath>
		<g class="st0">
			<g>
				<path d="M328.1,72.9c-5.1,4.3-12.4,6.4-21.9,6.4h-18.2v31.4H270V23.5h37.4c8.6,0,15.5,2.3,20.7,6.7c5.1,4.5,7.7,11.5,7.7,20.9
					C335.7,61.4,333.2,68.7,328.1,72.9z M314.2,41.5c-2.3-1.9-5.5-2.9-9.7-2.9h-16.4v25.7h16.4c4.2,0,7.4-1,9.7-3.1
					c2.3-2.1,3.5-5.4,3.5-9.9S316.5,43.5,314.2,41.5z"/>
				<path d="M384.8,44.7c0.2,0,0.7,0,1.5,0.1v17.3c-1.1-0.1-2-0.2-2.8-0.2c-0.8,0-1.5-0.1-2-0.1c-6.8,0-11.3,2.2-13.7,6.6
					c-1.3,2.5-1.9,6.3-1.9,11.5v30.8h-17V46.2h16.1v11.2c2.6-4.3,4.9-7.2,6.8-8.8c3.2-2.6,7.3-4,12.3-4
					C384.3,44.7,384.6,44.7,384.8,44.7z"/>
				<path d="M449.9,102.8c-5.4,6.7-13.7,10.1-24.8,10.1c-11.1,0-19.3-3.4-24.8-10.1c-5.4-6.7-8.2-14.8-8.2-24.3
					c0-9.3,2.7-17.4,8.2-24.2c5.4-6.8,13.7-10.2,24.8-10.2c11.1,0,19.3,3.4,24.8,10.2s8.2,14.9,8.2,24.2
					C458.1,88,455.4,96.1,449.9,102.8z M436.4,93.5c2.6-3.5,4-8.5,4-14.9c0-6.5-1.3-11.4-4-14.9c-2.7-3.5-6.4-5.2-11.4-5.2
					s-8.7,1.7-11.4,5.2c-2.7,3.5-4,8.4-4,14.9c0,6.5,1.3,11.4,4,14.9c2.7,3.5,6.5,5.3,11.4,5.3S433.8,97,436.4,93.5z"/>
				<path d="M462.8,123c1,0.1,1.6,0.1,2,0.2c0.4,0,0.8,0,1.1,0c1.7,0,2.9-0.4,3.8-1.2c0.8-0.8,1.3-2.4,1.3-4.7V46.5h16.9v71.1
					c0,6.5-1.3,11.3-3.8,14.4s-7.6,4.7-15.1,4.7c-0.5,0-1.3,0-2.3-0.1c-1,0-2.3-0.1-3.8-0.1L462.8,123L462.8,123z M487.8,38.5h-16.9
					V22.9h16.9V38.5z"/>
				<path d="M545.8,47.5c4.5,2,8.2,5.2,11.1,9.5c2.6,3.8,4.4,8.3,5.1,13.3c0.5,3,0.6,7.2,0.6,12.8h-47c0.3,6.5,2.5,11,6.7,13.6
					c2.6,1.6,5.7,2.4,9.3,2.4c3.8,0,7-1,9.4-3c1.3-1.1,2.5-2.5,3.5-4.4h17.2c-0.5,3.8-2.5,7.7-6.3,11.7c-5.8,6.3-13.9,9.4-24.3,9.4
					c-8.6,0-16.1-2.7-22.7-7.9c-6.6-5.3-9.8-13.9-9.8-25.8c0-11.2,3-19.7,8.9-25.7c5.9-6,13.6-8.9,23.1-8.9
					C536.3,44.5,541.3,45.5,545.8,47.5z M520.6,62.1c-2.4,2.5-3.9,5.8-4.5,10h29c-0.3-4.5-1.8-7.9-4.5-10.2c-2.7-2.3-6-3.5-10-3.5
					C526.3,58.4,523,59.6,520.6,62.1z"/>
				<path d="M609.8,69.3c-0.3-2.4-1.1-4.6-2.4-6.5c-1.9-2.6-4.8-3.9-8.8-3.9c-5.7,0-9.6,2.8-11.7,8.5c-1.1,3-1.7,7-1.7,11.9
					c0,4.7,0.6,8.5,1.7,11.4c2,5.4,5.8,8,11.4,8c4,0,6.8-1.1,8.4-3.2c1.7-2.1,2.7-4.9,3-8.3h17.2c-0.4,5.1-2.3,10-5.6,14.6
					c-5.3,7.4-13.1,11.1-23.5,11.1c-10.4,0-18-3.1-22.9-9.2c-4.9-6.1-7.3-14.1-7.3-23.9c0-11.1,2.7-19.7,8.1-25.8s12.9-9.2,22.4-9.2
					c8.1,0,14.7,1.8,19.9,5.4c5.2,3.6,8.2,10,9.2,19.2C627.1,69.3,609.8,69.3,609.8,69.3z"/>
				<path d="M631.9,58.8v-12h9v-18h16.7v18h10.5v12h-10.5v34.1c0,2.6,0.3,4.3,1,4.9c0.7,0.6,2.7,1,6.1,1c0.5,0,1.1,0,1.6,0
					s1.1,0,1.7-0.1v12.6l-8,0.3c-8,0.3-13.4-1.1-16.3-4.1c-1.9-1.9-2.8-4.9-2.8-8.9V58.8H631.9z"/>
				<path d="M696.2,38.5h-17.1V22.9h17.1V38.5z M679.2,46.2h17.1v64.5h-17.1V46.2z"/>
				<path d="M739.2,22.7c0.9,0.1,2.1,0.2,3.6,0.3v13.7c-1-0.1-2.5-0.2-4.8-0.3c-2.2-0.1-3.8,0.4-4.6,1.5s-1.3,2.2-1.3,3.4
					c0,1.3,0,3.1,0,5.4h11.1v11.9h-11.1v52h-16.7v-52h-9.5V46.8h9.2v-4.1c0-6.9,1.2-11.7,3.5-14.3c2.5-3.9,8.3-5.8,17.7-5.8
					C737.4,22.6,738.4,22.6,739.2,22.7z"/>
				<path d="M755.4,123l2.1,0.1c1.7,0.1,3.2,0,4.7-0.2c1.5-0.2,2.8-0.6,3.8-1.4c1-0.7,1.9-2.1,2.7-4.2c0.8-2.1,1.2-3.4,1.1-3.9
					l-23.7-67.3H765l14.1,47.6l13.3-47.6h17.9l-22.1,63.4c-4.3,12.2-7.7,19.8-10.1,22.8c-2.5,2.9-7.5,4.4-14.9,4.4
					c-1.5,0-2.7,0-3.6,0c-0.9,0-2.3-0.1-4.1-0.2L755.4,123L755.4,123z"/>
			</g>
		</g>
	</g>
	<g>
		<defs>
			<rect id="SVGID_3_" x="0" width="812.4" height="200"/>
		</defs>
		<clipPath id="SVGID_4_">
			<use xlink:href="#SVGID_3_"  style="overflow:visible;"/>
		</clipPath>
		<path class="st1" d="M126.9,17.1L87.5,175.4C84.4,189.7,71.7,200,57,200H14.1c-9,0-15.7-8.3-13.8-17.1L39.7,24.6
			C42.8,10.3,55.4,0,70.1,0H113C122,0,128.7,8.3,126.9,17.1"/>
	</g>
	<g>
		<defs>
			<rect id="SVGID_5_" x="0" width="812.4" height="200"/>
		</defs>
		<clipPath id="SVGID_6_">
			<use xlink:href="#SVGID_5_"  style="overflow:visible;"/>
		</clipPath>
		<path class="st2" d="M236.2,9l-16.3,76.1c-5.1,23.8-26.1,40.8-50.5,40.8h-34.6c-4.7,0-8.3-4.4-7.3-9l16.3-76.1
			C148.9,17,170,0,194.3,0h34.6C233.6,0,237.2,4.4,236.2,9"/>
	</g>
</g>
</svg>
