<?xml version="1.0" encoding="utf-8"?>
<!-- Generator: Adobe Illustrator 24.3.0, SVG Export Plug-In . SVG Version: 6.00 Build 0)  -->
<svg version="1.1" id="Layer_1" xmlns="http://www.w3.org/2000/svg" xmlns:xlink="http://www.w3.org/1999/xlink" x="0px" y="0px"
	 viewBox="0 0 704.3 200" style="enable-background:new 0 0 704.3 200;" xml:space="preserve">
<style type="text/css">
	.st0{fill:url(#SVGID_1_);}
	.st1{fill:#FFFFFF;}
</style>
<g>
	<g>
		<path d="M545.8,53c-2.1-7.7-8.5-11.2-9.7-11.8c2.1-5.3,3.6-8.9,4.1-9.8c0.1-0.2,0.4-0.8,0.2-1.1c-0.1-0.2-0.4-0.2-0.5-0.2
			c-0.6-0.1-2.7-0.3-3.4,0.8c-0.2,0.3-0.2,0.5-0.2,0.5c-0.3,2.3-6.7,15.6-9.7,28.7c-0.2,1-0.7,3.3-0.4,6.3c0.2,2.3,0.6,5.7,2.6,7.2
			c3.3,2.5,10.8-0.5,14.6-5.3C548.1,62.2,546.2,54.6,545.8,53z M543.2,59.3c0,0.5-0.2,0.9-0.4,1.4c-1.9,4.2-8.1,4.5-9.7,4.6
			c-2.2,0.1-2.9-0.3-3.3-0.8c-0.8-0.9-0.6-2.3-0.5-3.1c0.7-4.2,2-8.9,2.7-11.2c0.2,0,0.6,0.1,1.1,0.3
			C537.5,51.9,543.5,55.5,543.2,59.3z"/>
		<g>
			<path d="M277.3,140.9l33-93.9c0.3-0.9,0.7-1.4,1.4-1.4h0.6c2.3,0,4.3,0.8,5.8,2.4c1.6,1.6,2.4,3.9,2.5,6.9l5.4,97.4
				c0,0.8-0.3,1.2-1,1.2h-7.9c-0.6,0-1-0.4-1-1.2l-4.5-83l-29.5,82.8c-0.4,0.9-1,1.4-1.9,1.4h-6.8c-0.5,0-1-0.5-1.4-1.4l-28.7-81.5
				l-4.5,81.6c0,0.8-0.3,1.2-1,1.2h-7.8c-0.6,0-1-0.4-1-1.2L234.9,47c0-0.9,0.4-1.4,1.2-1.4h0.6c3.4,0,5.7,0.6,7,1.9
				c1.3,1.3,2.4,3.2,3.3,5.8L277.3,140.9z"/>
			<path d="M377,155.4c-9.3,0-16.5-2.8-21.7-8.5c-5.2-5.7-7.8-13.8-7.8-24.2V84.8c0-0.8,0.3-1.2,0.8-1.2h1c2.3,0,4.3,0.9,5.8,2.7
				c1.6,1.8,2.3,4.3,2.3,7.4v29.5c0,7.2,1.7,12.9,5,17.1c3.4,4.1,8.2,6.2,14.5,6.2c6.3,0,11.3-1.8,14.7-5.5
				c3.5-3.7,5.2-9.4,5.2-17.2v-39c0-0.8,0.3-1.2,1-1.2h0.8c2.3,0,4.2,0.9,5.7,2.7c1.5,1.8,2.2,4.3,2.2,7.4v29.5
				c0,10.2-2.7,18.1-7.9,23.8C393.4,152.6,386.2,155.4,377,155.4z"/>
			<path d="M426.7,137.6c1.8,2.2,4.3,4.2,7.5,6.1c3.2,1.9,7.3,2.8,12.5,2.8c5.6,0,9.7-1,12.5-3c2.8-2,4.2-4.8,4.2-8.2
				c0-3-1.3-5.4-4-7.2c-2.7-1.8-5.9-3.4-9.7-4.8c-3.8-1.4-7.7-2.9-11.5-4.6c-3.9-1.7-7.1-3.9-9.8-6.5c-2.7-2.6-4-6.1-4-10.5
				c0-5.3,2.2-9.9,6.6-13.7s10.2-5.7,17.5-5.7c6.8,0,12.7,1.2,17.5,3.5c3.5,1.8,4.8,4.2,3.9,7.2l-0.8,2.9c-0.1,0.8-0.5,1.2-1,1.2
				c-0.4,0-0.7-0.1-1-0.4c-2.8-1.7-5.7-3-8.7-3.9c-3-0.9-6.3-1.4-9.9-1.4c-4.4,0-7.9,0.8-10.5,2.5c-2.6,1.7-3.9,4-3.9,7
				c0,2.8,1.3,5.1,4,6.9c2.7,1.7,5.9,3.3,9.8,4.6c3.9,1.4,7.7,2.9,11.5,4.6c3.8,1.7,7,3.8,9.7,6.5c2.7,2.7,4,6.2,4,10.8
				c0,6.3-2.3,11.5-6.9,15.4s-11,5.9-19.1,5.9c-5.2,0-9.6-0.9-13.2-2.8c-3.6-1.9-6.3-4.1-8.1-6.6c-1.8-2.5-2.7-4.8-2.7-6.9
				c0-1.9,0.6-2.9,1.9-2.9C425.7,136.4,426.3,136.8,426.7,137.6z"/>
			<path d="M505.4,155.2c-4.8,0-8.6-1.5-11.5-4.5c-2.9-3-4.4-7.8-4.4-14.5V47c0-0.9,0.3-1.4,1-1.4h1c2.3,0,4.2,0.9,5.6,2.7
				c1.4,1.8,2.1,4.3,2.1,7.4v79.9c0,6.6,2.7,9.9,7.9,9.9c3.8,0,7-1.9,9.9-5.8c0.4-0.3,0.7-0.5,0.9-0.8c0.2-0.3,0.4-0.4,0.7-0.4
				c1,0,1.6,0.9,1.6,2.7c0,1.4-0.5,3.3-1.5,5.5c-1,2.3-2.5,4.2-4.6,5.9C511.9,154.4,509,155.2,505.4,155.2z"/>
			<path d="M532.7,153.5c-0.6,0-1-0.4-1-1.2V84.8c0-0.8,0.3-1.2,1-1.2h0.8c2.2,0,4.1,0.9,5.6,2.7c1.6,1.8,2.3,4.3,2.3,7.4v58.6
				c0,0.8-0.3,1.2-1,1.2H532.7z"/>
			<path d="M574.4,93.9c1.8-3,4.7-5.7,8.7-8.1c4-2.4,8.9-3.6,14.7-3.6c9.2,0,16.3,2.8,21.3,8.4c5,5.6,7.6,12.7,7.6,21.2v40.3
				c0,0.8-0.3,1.2-1,1.2h-7.8c-0.6,0-1-0.4-1-1.2v-37.6c0-7.4-1.8-13.1-5.4-17.2c-3.6-4.1-8.8-6.1-15.5-6.1
				c-14.6,0-21.9,8.2-21.9,24.6v36.3c0,0.8-0.3,1.2-1,1.2h-7.8c-0.6,0-1-0.4-1-1.2V84.8c0-0.8,0.3-1.2,1-1.2h1
				c2.3,0,4.2,0.9,5.7,2.8C573.7,88.3,574.4,90.8,574.4,93.9z"/>
			<path d="M659.6,124.8v27.5c0,0.8-0.3,1.2-1,1.2h-7.8c-0.6,0-1-0.4-1-1.2V47c0-0.9,0.3-1.4,1-1.4h1c2.2,0,4,0.9,5.5,2.7
				c1.5,1.8,2.2,4.3,2.2,7.6v57.4l28.9-27.9c1-1,2.3-1.6,3.9-1.6h7.6c0.4,0,0.6,0.1,0.8,0.3c0.1,0.2,0.1,0.4-0.2,0.7l-24.6,24
				l28.1,43.4c0.5,0.8,0.3,1.2-0.6,1.2h-7.8c-1.6,0-2.7-0.6-3.5-1.9l-23.1-36.1L659.6,124.8z"/>
		</g>
	</g>
	<g>
		<g>
			
				<linearGradient id="SVGID_1_" gradientUnits="userSpaceOnUse" x1="0" y1="99.9656" x2="200.0134" y2="99.9656" gradientTransform="matrix(1 0 0 -1 0 199.9656)">
				<stop  offset="0" style="stop-color:#4DB8DC"/>
				<stop  offset="1" style="stop-color:#7581FB"/>
			</linearGradient>
			<polygon class="st0" points="200,100 170.7,129.3 170.7,170.7 129.3,170.7 100,200 70.7,170.7 29.3,170.7 29.3,129.3 0,100 
				29.3,70.7 29.3,29.3 70.7,29.3 100,0 129.3,29.3 170.7,29.3 170.7,70.7 			"/>
		</g>
	</g>
	<path class="st1" d="M97,56.2c20.7-0.9,35.9,10,37.4,21.8c0.8,6-1.7,14-7.6,18.3c-13.9,10-33.9-6.8-43.9,2.4
		c-0.3,0.3-0.6,0.6-0.9,1c-5.2,7.2-4.4,16.5-2.9,25.5c2,12.7,4.1,23.7,6,32.9c-6.5-15.5-13.1-31-19.6-46.5c0.7-8.7,3-21.3,11.7-25.9
		c15.7-8.3,41.1,15.1,45.8,9.6c2.5-3-2.5-12.3-8.9-17.3c-8.1-6.3-19.7-6.9-29.6-1.4C88.7,69.8,92.9,63,97,56.2z"/>
</g>
</svg>
